# xmcd
#
# Track frame offsets: 
#        150
#        14205
#        35645
#        47658
#        61212
#        79388
#        97338
#        109530
#        119013
#        131567
#        141421
#        151932
#        166586
#        179101
#        203613
#        216558
#
# Disc length: 3032 seconds
#
# Revision: 0
# Processed by: cddbd v1.5.2PL0 Copyright (c) Steve Scherf et al.
# Submitted via: ExactAudioCopy v0.99pb5
#
DISCID=f40bd610
DTITLE=Stoppok plus Worthy - Grundblues 2.1
DYEAR=2010
DGENRE=Blues
TTITLE0=Besser mal geh`n
TTITLE1=Zeit für ein Wunder 
TTITLE2=Hey Maria
TTITLE3=Schieber Blues 
TTITLE4=Die Antwort 
TTITLE5=Ich Arbeitete
TTITLE6=Spezialisten Blues
TTITLE7=Schuften 
TTITLE8=Ausgebrannt 
TTITLE9=Ratten 
TTITLE10=Gute Laune Blues
TTITLE11=Time Will Tell
TTITLE12=I`ll Be There
TTITLE13=Turn It On
TTITLE14=Sei Froh
TTITLE15=Schon Schön
EXTD=
EXTT0=
EXTT1=
EXTT2=
EXTT3=
EXTT4=
EXTT5=
EXTT6=
EXTT7=
EXTT8=
EXTT9=
EXTT10=
EXTT11=
EXTT12=
EXTT13=
EXTT14=
EXTT15=
PLAYORDER=
